<mxfile host="Electron" modified="2023-12-29T08:26:36.610Z" agent="Mozilla/5.0 (Windows NT 10.0; Win64; x64) AppleWebKit/537.36 (KHTML, like Gecko) draw.io/22.1.15 Chrome/120.0.6099.109 Electron/28.1.0 Safari/537.36" etag="xLhV7IRiTxJvyawqx66h" version="22.1.15" type="device">
  <diagram name="Page-1" id="iXrridbx2wC7fuqqNDMT">
    <mxGraphModel dx="484" dy="663" grid="1" gridSize="10" guides="1" tooltips="1" connect="1" arrows="1" fold="1" page="1" pageScale="1" pageWidth="850" pageHeight="1100" background="none" math="0" shadow="0">
      <root>
        <mxCell id="0" />
        <mxCell id="1" parent="0" />
        <mxCell id="9OQsHXzKhcZjRLT4CZzi-6" value="" style="rounded=1;whiteSpace=wrap;html=1;fillColor=#000000;arcSize=4;strokeColor=#999999;" parent="1" vertex="1">
          <mxGeometry x="640" y="240" width="260" height="80" as="geometry" />
        </mxCell>
        <mxCell id="9OQsHXzKhcZjRLT4CZzi-1" value="&lt;pre&gt;&lt;font color=&quot;#ffffff&quot;&gt;C:\Users\cppHusky&amp;gt;&lt;u&gt; &lt;/u&gt;&lt;/font&gt;&lt;/pre&gt;" style="text;html=1;strokeColor=none;fillColor=none;align=left;verticalAlign=middle;whiteSpace=wrap;rounded=0;" parent="1" vertex="1">
          <mxGeometry x="650" y="240" width="170" height="20" as="geometry" />
        </mxCell>
        <mxCell id="9OQsHXzKhcZjRLT4CZzi-2" value="&lt;pre&gt;&lt;font color=&quot;#ffffff&quot;&gt;C:\Users\cppHusky&amp;gt;d&lt;u&gt; &lt;/u&gt;&lt;/font&gt;&lt;/pre&gt;" style="text;html=1;strokeColor=none;fillColor=none;align=left;verticalAlign=middle;whiteSpace=wrap;rounded=0;" parent="1" vertex="1">
          <mxGeometry x="650" y="260" width="170" height="20" as="geometry" />
        </mxCell>
        <mxCell id="9OQsHXzKhcZjRLT4CZzi-3" value="&lt;pre&gt;&lt;font color=&quot;#ffffff&quot;&gt;C:\Users\cppHusky&amp;gt;di&lt;u&gt; &lt;/u&gt;&lt;/font&gt;&lt;/pre&gt;" style="text;html=1;strokeColor=none;fillColor=none;align=left;verticalAlign=middle;whiteSpace=wrap;rounded=0;" parent="1" vertex="1">
          <mxGeometry x="650" y="280" width="170" height="20" as="geometry" />
        </mxCell>
        <mxCell id="9OQsHXzKhcZjRLT4CZzi-4" value="&lt;pre&gt;&lt;font color=&quot;#ffffff&quot;&gt;C:\Users\cppHusky&amp;gt;dir&lt;u&gt; &lt;/u&gt;&lt;/font&gt;&lt;/pre&gt;" style="text;html=1;strokeColor=none;fillColor=none;align=left;verticalAlign=middle;whiteSpace=wrap;rounded=0;" parent="1" vertex="1">
          <mxGeometry x="650" y="300" width="170" height="20" as="geometry" />
        </mxCell>
        <mxCell id="9OQsHXzKhcZjRLT4CZzi-7" value="依次按下 d i r&lt;br&gt;每次输入后光标后移" style="text;html=1;strokeColor=none;fillColor=#80cbf2;align=center;verticalAlign=middle;whiteSpace=wrap;rounded=0;fontFamily=Courier New;gradientColor=none;gradientDirection=south;" parent="1" vertex="1">
          <mxGeometry x="640" y="200" width="260" height="30" as="geometry" />
        </mxCell>
        <mxCell id="9OQsHXzKhcZjRLT4CZzi-9" value="&lt;font face=&quot;Courier New&quot;&gt;按下回车&lt;br&gt;输入内容发送给程序&lt;br&gt;显示如下输出&lt;br&gt;&lt;/font&gt;" style="rounded=0;whiteSpace=wrap;html=1;fillColor=#80cbf2;strokeColor=none;" parent="1" vertex="1">
          <mxGeometry x="640" y="330" width="260" height="50" as="geometry" />
        </mxCell>
        <mxCell id="9OQsHXzKhcZjRLT4CZzi-10" value="" style="rounded=1;whiteSpace=wrap;html=1;fillColor=#000000;arcSize=4;strokeColor=#999999;" parent="1" vertex="1">
          <mxGeometry x="640" y="390" width="260" height="110" as="geometry" />
        </mxCell>
        <mxCell id="9OQsHXzKhcZjRLT4CZzi-13" value="&lt;pre&gt;&lt;font color=&quot;#ffffff&quot;&gt; Volume in drive C is Windows-SSD&lt;/font&gt;&lt;br&gt;&lt;/pre&gt;" style="text;html=1;strokeColor=none;fillColor=none;align=left;verticalAlign=middle;whiteSpace=wrap;rounded=0;" parent="1" vertex="1">
          <mxGeometry x="650" y="390" width="250" height="20" as="geometry" />
        </mxCell>
        <mxCell id="9OQsHXzKhcZjRLT4CZzi-14" value="&lt;pre&gt;&lt;font color=&quot;#ffffff&quot;&gt; Volume Serial Number is 1234-ABCD&lt;/font&gt;&lt;/pre&gt;" style="text;html=1;strokeColor=none;fillColor=none;align=left;verticalAlign=middle;whiteSpace=wrap;rounded=0;" parent="1" vertex="1">
          <mxGeometry x="650" y="410" width="250" height="20" as="geometry" />
        </mxCell>
        <mxCell id="9OQsHXzKhcZjRLT4CZzi-15" value="&lt;pre&gt;&lt;font color=&quot;#ffffff&quot;&gt; Directory of C:\Users\cppHusky&lt;/font&gt;&lt;/pre&gt;" style="text;html=1;strokeColor=none;fillColor=none;align=left;verticalAlign=middle;whiteSpace=wrap;rounded=0;" parent="1" vertex="1">
          <mxGeometry x="650" y="440" width="250" height="20" as="geometry" />
        </mxCell>
        <mxCell id="9OQsHXzKhcZjRLT4CZzi-16" value="" style="rounded=1;whiteSpace=wrap;html=1;fillColor=#000000;arcSize=4;strokeColor=#999999;" parent="1" vertex="1">
          <mxGeometry x="640" y="540" width="260" height="40" as="geometry" />
        </mxCell>
        <mxCell id="9OQsHXzKhcZjRLT4CZzi-17" value="&lt;pre&gt;&lt;font color=&quot;#ffffff&quot;&gt;C:\Users\cppHusky&amp;gt;&lt;u&gt; &lt;/u&gt;&lt;/font&gt;&lt;/pre&gt;" style="text;html=1;strokeColor=none;fillColor=none;align=left;verticalAlign=middle;whiteSpace=wrap;rounded=0;" parent="1" vertex="1">
          <mxGeometry x="650" y="540" width="210" height="20" as="geometry" />
        </mxCell>
        <mxCell id="9OQsHXzKhcZjRLT4CZzi-18" value="&lt;font face=&quot;Courier New&quot;&gt;等待下次输入&lt;br&gt;&lt;/font&gt;" style="rounded=0;whiteSpace=wrap;html=1;fillColor=#80cbf2;strokeColor=none;" parent="1" vertex="1">
          <mxGeometry x="640" y="510" width="260" height="20" as="geometry" />
        </mxCell>
        <mxCell id="9OQsHXzKhcZjRLT4CZzi-20" value="" style="rounded=1;whiteSpace=wrap;html=1;fillColor=#000000;arcSize=4;strokeColor=#999999;" parent="1" vertex="1">
          <mxGeometry x="370" y="240" width="230" height="80" as="geometry" />
        </mxCell>
        <mxCell id="9OQsHXzKhcZjRLT4CZzi-21" value="&lt;pre&gt;&lt;font color=&quot;#ffffff&quot;&gt;C:\Users\cppHusky&amp;gt;&lt;u&gt; &lt;/u&gt;&lt;/font&gt;&lt;/pre&gt;" style="text;html=1;strokeColor=none;fillColor=none;align=left;verticalAlign=middle;whiteSpace=wrap;rounded=0;" parent="1" vertex="1">
          <mxGeometry x="380" y="240" width="170" height="20" as="geometry" />
        </mxCell>
        <mxCell id="9OQsHXzKhcZjRLT4CZzi-22" value="&lt;pre&gt;&lt;font color=&quot;#ffffff&quot;&gt;C:\Users\cppHusky&amp;gt;d&lt;u&gt; &lt;/u&gt;&lt;/font&gt;&lt;/pre&gt;" style="text;html=1;strokeColor=none;fillColor=none;align=left;verticalAlign=middle;whiteSpace=wrap;rounded=0;" parent="1" vertex="1">
          <mxGeometry x="380" y="260" width="170" height="20" as="geometry" />
        </mxCell>
        <mxCell id="9OQsHXzKhcZjRLT4CZzi-23" value="&lt;pre&gt;&lt;font color=&quot;#ffffff&quot;&gt;C:\Users\cppHusky&amp;gt;di&lt;u&gt; &lt;/u&gt;&lt;/font&gt;&lt;/pre&gt;" style="text;html=1;strokeColor=none;fillColor=none;align=left;verticalAlign=middle;whiteSpace=wrap;rounded=0;" parent="1" vertex="1">
          <mxGeometry x="380" y="280" width="170" height="20" as="geometry" />
        </mxCell>
        <mxCell id="9OQsHXzKhcZjRLT4CZzi-24" value="&lt;pre&gt;&lt;font color=&quot;#ffffff&quot;&gt;C:\Users\cppHusky&amp;gt;dir&lt;u&gt; &lt;/u&gt;&lt;/font&gt;&lt;/pre&gt;" style="text;html=1;strokeColor=none;fillColor=none;align=left;verticalAlign=middle;whiteSpace=wrap;rounded=0;" parent="1" vertex="1">
          <mxGeometry x="380" y="300" width="170" height="20" as="geometry" />
        </mxCell>
        <mxCell id="9OQsHXzKhcZjRLT4CZzi-25" value="依次按下 d i r&lt;br&gt;每次输入后光标后移" style="text;html=1;strokeColor=none;fillColor=#80cbf2;align=center;verticalAlign=middle;whiteSpace=wrap;rounded=0;fontFamily=Courier New;gradientColor=none;gradientDirection=south;" parent="1" vertex="1">
          <mxGeometry x="370" y="200" width="230" height="30" as="geometry" />
        </mxCell>
        <mxCell id="9OQsHXzKhcZjRLT4CZzi-26" value="" style="rounded=1;whiteSpace=wrap;html=1;fillColor=#000000;arcSize=4;strokeColor=#999999;" parent="1" vertex="1">
          <mxGeometry x="370" y="370" width="230" height="100" as="geometry" />
        </mxCell>
        <mxCell id="9OQsHXzKhcZjRLT4CZzi-27" value="&lt;pre&gt;&lt;font color=&quot;#ffffff&quot;&gt;C:\Users\cppHusky&amp;gt;&lt;u&gt;d&lt;/u&gt;ir&lt;/font&gt;&lt;/pre&gt;" style="text;html=1;strokeColor=none;fillColor=none;align=left;verticalAlign=middle;whiteSpace=wrap;rounded=0;" parent="1" vertex="1">
          <mxGeometry x="380" y="370" width="170" height="20" as="geometry" />
        </mxCell>
        <mxCell id="9OQsHXzKhcZjRLT4CZzi-31" value="将光标移动到 d&amp;nbsp;处&lt;br&gt;然后重新输入 p i n g" style="text;html=1;strokeColor=none;fillColor=#80cbf2;align=center;verticalAlign=middle;whiteSpace=wrap;rounded=0;fontFamily=Courier New;gradientColor=none;gradientDirection=south;" parent="1" vertex="1">
          <mxGeometry x="370" y="330" width="230" height="30" as="geometry" />
        </mxCell>
        <mxCell id="9OQsHXzKhcZjRLT4CZzi-32" value="&lt;pre&gt;&lt;font color=&quot;#ffffff&quot;&gt;C:\Users\cppHusky&amp;gt;p&lt;u&gt;i&lt;/u&gt;r&lt;/font&gt;&lt;/pre&gt;" style="text;html=1;strokeColor=none;fillColor=none;align=left;verticalAlign=middle;whiteSpace=wrap;rounded=0;" parent="1" vertex="1">
          <mxGeometry x="380" y="390" width="170" height="20" as="geometry" />
        </mxCell>
        <mxCell id="9OQsHXzKhcZjRLT4CZzi-33" value="&lt;pre&gt;&lt;font color=&quot;#ffffff&quot;&gt;C:\Users\cppHusky&amp;gt;pi&lt;u&gt;r&lt;/u&gt;&lt;/font&gt;&lt;/pre&gt;" style="text;html=1;strokeColor=none;fillColor=none;align=left;verticalAlign=middle;whiteSpace=wrap;rounded=0;" parent="1" vertex="1">
          <mxGeometry x="380" y="410" width="170" height="20" as="geometry" />
        </mxCell>
        <mxCell id="9OQsHXzKhcZjRLT4CZzi-34" value="&lt;pre&gt;&lt;font color=&quot;#ffffff&quot;&gt;C:\Users\cppHusky&amp;gt;pin&lt;u&gt; &lt;/u&gt;&lt;/font&gt;&lt;/pre&gt;" style="text;html=1;strokeColor=none;fillColor=none;align=left;verticalAlign=middle;whiteSpace=wrap;rounded=0;" parent="1" vertex="1">
          <mxGeometry x="380" y="430" width="170" height="20" as="geometry" />
        </mxCell>
        <mxCell id="9OQsHXzKhcZjRLT4CZzi-35" value="&lt;pre&gt;&lt;font color=&quot;#ffffff&quot;&gt;C:\Users\cppHusky&amp;gt;ping&lt;u&gt; &lt;/u&gt;&lt;/font&gt;&lt;/pre&gt;" style="text;html=1;strokeColor=none;fillColor=none;align=left;verticalAlign=middle;whiteSpace=wrap;rounded=0;" parent="1" vertex="1">
          <mxGeometry x="380" y="450" width="170" height="20" as="geometry" />
        </mxCell>
        <mxCell id="9OQsHXzKhcZjRLT4CZzi-36" value="&lt;font face=&quot;Courier New&quot;&gt;连续按下退格，删除输入&lt;br&gt;&lt;/font&gt;" style="rounded=0;whiteSpace=wrap;html=1;fillColor=#80cbf2;strokeColor=none;" parent="1" vertex="1">
          <mxGeometry x="370" y="480" width="230" height="20" as="geometry" />
        </mxCell>
        <mxCell id="9OQsHXzKhcZjRLT4CZzi-37" value="" style="rounded=1;whiteSpace=wrap;html=1;fillColor=#000000;arcSize=4;strokeColor=#999999;" parent="1" vertex="1">
          <mxGeometry x="370" y="510" width="230" height="100" as="geometry" />
        </mxCell>
        <mxCell id="9OQsHXzKhcZjRLT4CZzi-38" value="&lt;pre&gt;&lt;font color=&quot;#ffffff&quot;&gt;C:\Users\cppHusky&amp;gt;ping&lt;u&gt; &lt;/u&gt;&lt;/font&gt;&lt;/pre&gt;" style="text;html=1;strokeColor=none;fillColor=none;align=left;verticalAlign=middle;whiteSpace=wrap;rounded=0;" parent="1" vertex="1">
          <mxGeometry x="380" y="510" width="170" height="20" as="geometry" />
        </mxCell>
        <mxCell id="9OQsHXzKhcZjRLT4CZzi-41" value="" style="edgeStyle=orthogonalEdgeStyle;rounded=0;orthogonalLoop=1;jettySize=auto;html=1;" parent="1" source="9OQsHXzKhcZjRLT4CZzi-39" target="9OQsHXzKhcZjRLT4CZzi-40" edge="1">
          <mxGeometry relative="1" as="geometry" />
        </mxCell>
        <mxCell id="9OQsHXzKhcZjRLT4CZzi-39" value="&lt;pre&gt;&lt;font color=&quot;#ffffff&quot;&gt;C:\Users\cppHusky&amp;gt;pin&lt;u&gt; &lt;/u&gt;&lt;/font&gt;&lt;/pre&gt;" style="text;html=1;strokeColor=none;fillColor=none;align=left;verticalAlign=middle;whiteSpace=wrap;rounded=0;" parent="1" vertex="1">
          <mxGeometry x="380" y="530" width="170" height="20" as="geometry" />
        </mxCell>
        <mxCell id="9OQsHXzKhcZjRLT4CZzi-40" value="&lt;pre&gt;&lt;font color=&quot;#ffffff&quot;&gt;C:\Users\cppHusky&amp;gt;pi&lt;u&gt; &lt;/u&gt;&lt;/font&gt;&lt;/pre&gt;" style="text;html=1;strokeColor=none;fillColor=none;align=left;verticalAlign=middle;whiteSpace=wrap;rounded=0;" parent="1" vertex="1">
          <mxGeometry x="380" y="550" width="170" height="20" as="geometry" />
        </mxCell>
        <mxCell id="9OQsHXzKhcZjRLT4CZzi-42" value="&lt;pre&gt;&lt;font color=&quot;#ffffff&quot;&gt;C:\Users\cppHusky&amp;gt;p&lt;u&gt; &lt;/u&gt;&lt;/font&gt;&lt;/pre&gt;" style="text;html=1;strokeColor=none;fillColor=none;align=left;verticalAlign=middle;whiteSpace=wrap;rounded=0;" parent="1" vertex="1">
          <mxGeometry x="380" y="570" width="170" height="20" as="geometry" />
        </mxCell>
        <mxCell id="9OQsHXzKhcZjRLT4CZzi-43" value="&lt;pre&gt;&lt;font color=&quot;#ffffff&quot;&gt;C:\Users\cppHusky&amp;gt;&lt;u&gt; &lt;/u&gt;&lt;/font&gt;&lt;/pre&gt;" style="text;html=1;strokeColor=none;fillColor=none;align=left;verticalAlign=middle;whiteSpace=wrap;rounded=0;" parent="1" vertex="1">
          <mxGeometry x="380" y="590" width="170" height="20" as="geometry" />
        </mxCell>
        <mxCell id="9OQsHXzKhcZjRLT4CZzi-8" value="" style="shape=flexArrow;endArrow=classic;html=1;rounded=0;strokeColor=none;fillColor=#f5f5f5;endSize=6;startSize=6;targetPerimeterSpacing=0;strokeWidth=1;gradientColor=#b3b3b3;" parent="1" edge="1">
          <mxGeometry width="50" height="50" relative="1" as="geometry">
            <mxPoint x="620" y="200" as="sourcePoint" />
            <mxPoint x="620" y="610" as="targetPoint" />
          </mxGeometry>
        </mxCell>
        <mxCell id="9OQsHXzKhcZjRLT4CZzi-19" value="程&lt;br&gt;&lt;br&gt;序&lt;br&gt;&lt;br&gt;执&lt;br&gt;&lt;br&gt;行&lt;br&gt;&lt;br&gt;过&lt;br&gt;&lt;br&gt;程" style="edgeLabel;html=1;align=center;verticalAlign=middle;resizable=0;points=[];horizontal=1;labelBackgroundColor=none;" parent="9OQsHXzKhcZjRLT4CZzi-8" vertex="1" connectable="0">
          <mxGeometry x="-0.1105" y="-2" relative="1" as="geometry">
            <mxPoint x="1" y="35" as="offset" />
          </mxGeometry>
        </mxCell>
        <mxCell id="9OQsHXzKhcZjRLT4CZzi-44" value="&lt;pre&gt;&lt;font color=&quot;#ffffff&quot;&gt;C:\Users\cppHusky&amp;gt;exit&lt;u&gt; &lt;/u&gt;&lt;/font&gt;&lt;/pre&gt;" style="text;html=1;strokeColor=none;fillColor=none;align=left;verticalAlign=middle;whiteSpace=wrap;rounded=0;" parent="1" vertex="1">
          <mxGeometry x="650" y="560" width="210" height="20" as="geometry" />
        </mxCell>
        <mxCell id="9OQsHXzKhcZjRLT4CZzi-45" value="&lt;font face=&quot;Courier New&quot;&gt;程序结束&lt;br&gt;&lt;/font&gt;" style="rounded=0;whiteSpace=wrap;html=1;fillColor=#80cbf2;strokeColor=none;" parent="1" vertex="1">
          <mxGeometry x="640" y="590" width="260" height="20" as="geometry" />
        </mxCell>
        <mxCell id="9OQsHXzKhcZjRLT4CZzi-46" value="&lt;pre&gt;&lt;font color=&quot;#ffffff&quot;&gt;...&lt;/font&gt;&lt;/pre&gt;" style="text;html=1;strokeColor=none;fillColor=none;align=left;verticalAlign=middle;whiteSpace=wrap;rounded=0;" parent="1" vertex="1">
          <mxGeometry x="650" y="470" width="250" height="20" as="geometry" />
        </mxCell>
      </root>
    </mxGraphModel>
  </diagram>
</mxfile>
